<mxfile host="app.diagrams.net" modified="2021-09-25T11:57:44.355Z" agent="5.0 (Windows NT 10.0; Win64; x64) AppleWebKit/537.36 (KHTML, like Gecko) Chrome/94.0.4606.61 Safari/537.36" etag="KGrEXY-Pv4bPWjZ11kVK" version="15.3.2" type="github">
  <diagram id="23gbs6PRRigID9WzYWSW" name="Library Inheritance">
    <mxGraphModel dx="1483" dy="5538" grid="1" gridSize="10" guides="1" tooltips="1" connect="1" arrows="1" fold="1" page="1" pageScale="1" pageWidth="3300" pageHeight="4681" math="0" shadow="0">
      <root>
        <mxCell id="0" />
        <mxCell id="1" parent="0" />
        <mxCell id="u6sSQ-exiEKYp6Kwl2yF-9" style="edgeStyle=orthogonalEdgeStyle;rounded=0;orthogonalLoop=1;jettySize=auto;html=1;exitX=0.5;exitY=1;exitDx=0;exitDy=0;" parent="1" source="u6sSQ-exiEKYp6Kwl2yF-1" target="u6sSQ-exiEKYp6Kwl2yF-2" edge="1">
          <mxGeometry relative="1" as="geometry" />
        </mxCell>
        <mxCell id="u6sSQ-exiEKYp6Kwl2yF-1" value="Drive System&lt;br&gt;(subsystem)" style="rounded=0;whiteSpace=wrap;html=1;" parent="1" vertex="1">
          <mxGeometry x="460" y="120" width="120" height="60" as="geometry" />
        </mxCell>
        <mxCell id="u6sSQ-exiEKYp6Kwl2yF-4" style="edgeStyle=orthogonalEdgeStyle;rounded=0;orthogonalLoop=1;jettySize=auto;html=1;exitX=0.75;exitY=1;exitDx=0;exitDy=0;entryX=0.25;entryY=0;entryDx=0;entryDy=0;" parent="1" source="u6sSQ-exiEKYp6Kwl2yF-2" target="u6sSQ-exiEKYp6Kwl2yF-3" edge="1">
          <mxGeometry relative="1" as="geometry" />
        </mxCell>
        <mxCell id="u6sSQ-exiEKYp6Kwl2yF-6" style="edgeStyle=orthogonalEdgeStyle;rounded=0;orthogonalLoop=1;jettySize=auto;html=1;exitX=0.25;exitY=1;exitDx=0;exitDy=0;entryX=0.75;entryY=0;entryDx=0;entryDy=0;" parent="1" source="u6sSQ-exiEKYp6Kwl2yF-2" target="u6sSQ-exiEKYp6Kwl2yF-5" edge="1">
          <mxGeometry relative="1" as="geometry" />
        </mxCell>
        <mxCell id="u6sSQ-exiEKYp6Kwl2yF-2" value="PID&lt;br&gt;(custom lib)" style="rounded=0;whiteSpace=wrap;html=1;" parent="1" vertex="1">
          <mxGeometry x="360" y="280" width="120" height="60" as="geometry" />
        </mxCell>
        <mxCell id="u6sSQ-exiEKYp6Kwl2yF-3" value="Servo&lt;br&gt;(inbuilt library)" style="rounded=0;whiteSpace=wrap;html=1;" parent="1" vertex="1">
          <mxGeometry x="440" y="390" width="120" height="60" as="geometry" />
        </mxCell>
        <mxCell id="u6sSQ-exiEKYp6Kwl2yF-8" style="edgeStyle=orthogonalEdgeStyle;rounded=0;orthogonalLoop=1;jettySize=auto;html=1;exitX=0.5;exitY=1;exitDx=0;exitDy=0;" parent="1" source="u6sSQ-exiEKYp6Kwl2yF-5" target="u6sSQ-exiEKYp6Kwl2yF-7" edge="1">
          <mxGeometry relative="1" as="geometry" />
        </mxCell>
        <mxCell id="u6sSQ-exiEKYp6Kwl2yF-5" value="EncoderSpeed&lt;br&gt;(custom lib)" style="rounded=0;whiteSpace=wrap;html=1;" parent="1" vertex="1">
          <mxGeometry x="270" y="390" width="120" height="60" as="geometry" />
        </mxCell>
        <mxCell id="u6sSQ-exiEKYp6Kwl2yF-7" value="Encoder&lt;br&gt;(from online)" style="rounded=0;whiteSpace=wrap;html=1;" parent="1" vertex="1">
          <mxGeometry x="270" y="510" width="120" height="60" as="geometry" />
        </mxCell>
        <mxCell id="u6sSQ-exiEKYp6Kwl2yF-10" value="Servo&lt;br&gt;(inbuilt library)&lt;br&gt;for ball collection" style="rounded=0;whiteSpace=wrap;html=1;" parent="1" vertex="1">
          <mxGeometry x="910" y="270" width="120" height="60" as="geometry" />
        </mxCell>
        <mxCell id="u6sSQ-exiEKYp6Kwl2yF-13" style="edgeStyle=orthogonalEdgeStyle;rounded=0;orthogonalLoop=1;jettySize=auto;html=1;entryX=0.5;entryY=0;entryDx=0;entryDy=0;" parent="1" source="u6sSQ-exiEKYp6Kwl2yF-12" target="u6sSQ-exiEKYp6Kwl2yF-1" edge="1">
          <mxGeometry relative="1" as="geometry" />
        </mxCell>
        <mxCell id="u6sSQ-exiEKYp6Kwl2yF-17" style="edgeStyle=orthogonalEdgeStyle;rounded=0;orthogonalLoop=1;jettySize=auto;html=1;" parent="1" source="u6sSQ-exiEKYp6Kwl2yF-12" target="u6sSQ-exiEKYp6Kwl2yF-15" edge="1">
          <mxGeometry relative="1" as="geometry" />
        </mxCell>
        <mxCell id="u6sSQ-exiEKYp6Kwl2yF-18" style="edgeStyle=orthogonalEdgeStyle;rounded=0;orthogonalLoop=1;jettySize=auto;html=1;entryX=0.5;entryY=0;entryDx=0;entryDy=0;" parent="1" source="u6sSQ-exiEKYp6Kwl2yF-12" target="u6sSQ-exiEKYp6Kwl2yF-14" edge="1">
          <mxGeometry relative="1" as="geometry" />
        </mxCell>
        <mxCell id="u6sSQ-exiEKYp6Kwl2yF-12" value="Sensors and Movement System" style="rounded=0;whiteSpace=wrap;html=1;" parent="1" vertex="1">
          <mxGeometry x="770" y="-30" width="110" height="60" as="geometry" />
        </mxCell>
        <mxCell id="u6sSQ-exiEKYp6Kwl2yF-19" style="edgeStyle=orthogonalEdgeStyle;rounded=0;orthogonalLoop=1;jettySize=auto;html=1;exitX=0.75;exitY=1;exitDx=0;exitDy=0;" parent="1" source="u6sSQ-exiEKYp6Kwl2yF-14" target="u6sSQ-exiEKYp6Kwl2yF-10" edge="1">
          <mxGeometry relative="1" as="geometry" />
        </mxCell>
        <mxCell id="u6sSQ-exiEKYp6Kwl2yF-22" style="edgeStyle=orthogonalEdgeStyle;rounded=0;orthogonalLoop=1;jettySize=auto;html=1;" parent="1" source="u6sSQ-exiEKYp6Kwl2yF-14" target="u6sSQ-exiEKYp6Kwl2yF-21" edge="1">
          <mxGeometry relative="1" as="geometry" />
        </mxCell>
        <mxCell id="u6sSQ-exiEKYp6Kwl2yF-23" style="edgeStyle=orthogonalEdgeStyle;rounded=0;orthogonalLoop=1;jettySize=auto;html=1;exitX=0.25;exitY=1;exitDx=0;exitDy=0;" parent="1" source="u6sSQ-exiEKYp6Kwl2yF-14" target="u6sSQ-exiEKYp6Kwl2yF-20" edge="1">
          <mxGeometry relative="1" as="geometry" />
        </mxCell>
        <mxCell id="u6sSQ-exiEKYp6Kwl2yF-14" value="Ball Collection&lt;br&gt;(subsystem)" style="whiteSpace=wrap;html=1;" parent="1" vertex="1">
          <mxGeometry x="765" y="120" width="120" height="60" as="geometry" />
        </mxCell>
        <mxCell id="u6sSQ-exiEKYp6Kwl2yF-15" value="Ultrasonic&lt;br&gt;(custom lib)" style="whiteSpace=wrap;html=1;" parent="1" vertex="1">
          <mxGeometry x="1030" y="120" width="120" height="60" as="geometry" />
        </mxCell>
        <mxCell id="u6sSQ-exiEKYp6Kwl2yF-20" value="Solonoid for disposal&lt;br&gt;(custom lib)" style="whiteSpace=wrap;html=1;" parent="1" vertex="1">
          <mxGeometry x="610" y="280" width="120" height="60" as="geometry" />
        </mxCell>
        <mxCell id="u6sSQ-exiEKYp6Kwl2yF-21" value="Laser Gate&lt;br&gt;(custom lib)" style="whiteSpace=wrap;html=1;" parent="1" vertex="1">
          <mxGeometry x="765" y="380" width="120" height="60" as="geometry" />
        </mxCell>
      </root>
    </mxGraphModel>
  </diagram>
</mxfile>
